PathFileType	4	(X/Y/Z)	OpenSim_Sub10_CSStiffKnee_Accel.trc
DataRate	CameraRate	NumFrames	NumMarkers	Units	OrigDataRate	OrigDataStartFrame	OrigNumFrames
100	100	41	8	m	100	4088	8174
Frame#	Time	torso_imu_offset_imu	pelvis_imu_offset_imu	tibia_r_imu_offset_imu	femur_r_imu_offset_imu	tibia_l_imu_offset_imu	femur_l_imu_offset_imu	toes_r_imu_offset_imu	toes_l_imu_offset_imu
				X1	Y1	Z1	X2	Y2	Z2	X3	Y3	Z3	X4	Y4	Z4	X5	Y5	Z5	X6	Y6	Z6	X7	Y7	Z7	X8		Y8	Z8	

4088	40.87000000	15.15405194	-2.27823018	5.53271843	16.58752657	3.43163839	7.17384766	3.68184445	13.35661158	-2.23446129	15.04390145	1.64080449	-2.57560968	12.91177950	3.01097081	3.51065296	15.35356474	-1.48609282	-3.22433694	7.60452427	-0.68118171	5.99690069	5.41167795	0.08834351	12.73044847
4089	40.88000000	15.25449620	-2.71083220	5.98894715	14.28626649	1.94454160	7.25175622	2.54557961	19.95270575	-7.33907169	10.40998909	2.87471617	-0.50420389	12.59603936	2.92830719	3.86977331	13.84156766	-1.31200855	-3.07534824	8.98965199	1.93396337	8.44371507	6.30220666	1.80626738	12.66761650
4090	40.89000000	15.61806890	-3.25797782	5.82753558	13.16801301	0.68406204	7.43373447	5.53898998	22.57884179	-6.78334556	7.96056693	3.60554787	0.44579341	12.52538233	2.91884683	3.82781429	12.21567948	-0.63141985	-2.59435631	7.79780309	-0.02097917	8.35170277	8.90757321	2.74943460	13.65178214
4091	40.90000000	15.58210228	-3.40807821	5.49373920	12.21594734	-0.14182203	7.48870319	7.90193729	20.87606690	-0.83226777	7.70685765	4.52073320	-0.06295726	12.73749718	2.78820966	3.55398669	11.51351996	-0.76652478	-1.72114701	6.89507953	-1.09501568	8.27042068	8.69027877	4.76745443	13.89908604
4092	40.91000000	14.44094448	-3.06616483	5.39704762	11.33518320	-0.38533670	7.27410261	8.51956751	14.53834484	0.55075602	9.17000949	5.17949449	-1.03849104	12.92264111	2.53169042	3.31418116	11.16090445	-0.47569799	-0.97484603	6.35818836	-1.29519460	8.28194255	11.05453655	2.39354869	13.70444661
4093	40.92000000	12.33289749	-2.78881377	5.27797670	10.34121671	-0.20997972	7.05973196	9.06400259	8.54763522	0.49209483	11.19424508	4.65671782	-1.80635859	12.75657128	1.26511152	2.85379444	11.02812116	-0.62488169	-0.21672138	5.60959638	-0.42550494	8.84306789	13.29559525	4.64604941	16.45426406
4094	40.93000000	10.88396100	-2.92855178	4.66743208	9.25123244	0.04018093	6.85780649	11.25752484	4.89432688	0.85244433	12.58375610	3.63995310	-2.46637013	11.96629578	-1.49172728	0.69908617	11.21974877	-1.02902385	0.52651596	5.07836764	0.34037816	9.36283499	8.85642200	3.78943635	15.75146087
4095	40.94000000	9.97222037	-2.96863000	3.92212174	8.32070289	0.40818224	6.52917806	14.49447178	1.92428785	-1.68242825	13.02251677	2.47913965	-2.30834565	11.05446278	-4.17564810	-0.34167809	11.55703130	-0.72919840	0.39857083	5.16339055	0.10392844	9.16933178	8.12332540	-1.64668431	15.12888976
4096	40.95000000	8.99942843	-2.69696453	3.53405620	7.56723946	0.86871058	6.20960724	15.16146605	-0.06114605	-1.38107886	12.29964611	0.53036904	-1.60114302	10.08168654	-7.84695824	-1.12012211	11.54369850	-0.30960830	-0.24049593	5.23245734	-1.08708046	8.54059340	7.31303509	3.84320984	22.59269365
4097	40.96000000	8.25001455	-2.33446245	3.34096800	6.94936948	1.34453712	5.80858057	11.94069585	0.03833545	1.62530332	10.77434437	-1.46861616	-0.99323009	8.36827170	-12.38023087	-3.25393146	11.75969624	-0.00092098	-0.18833732	4.80723593	-1.49131396	8.66214781	-1.23556983	4.98737403	21.20640119
4098	40.97000000	7.91496128	-2.07217295	3.18690751	6.67428825	1.81940498	5.26475458	8.17866265	-0.75609740	1.09344376	9.31065531	-2.90272747	-0.40065369	6.24961397	-13.58126533	-2.34439974	11.74475006	0.66396477	-0.18337990	4.84560474	-0.34670087	9.05083817	-4.07573645	1.60367175	18.67083383
4099	40.98000000	7.78556725	-2.18181719	3.15369050	6.54614913	2.24199545	4.82625691	7.18961766	-0.95430808	0.42976967	8.34400336	-3.72272452	0.34222530	4.39940296	-11.66894274	-0.16601157	11.31802703	1.14450731	0.04490128	4.92545519	0.35752986	9.17908129	-3.74870849	0.66284460	17.53120809
4100	40.99000000	7.62685064	-2.37421892	3.17053415	6.48194237	2.61943490	4.40849514	9.12843838	0.76555049	0.63638500	7.81662318	-3.89269061	0.62464531	2.36087696	-9.15740838	0.26753961	10.54019311	0.88031607	0.50133194	4.78367025	-0.69152739	8.88112241	-4.65383398	1.78946913	16.49928853
4101	41	7.41971046	-2.26564123	3.37450852	6.34879354	2.82531795	4.07756386	10.97813264	1.96102270	0.07193979	7.45868319	-3.55185144	0.30144686	1.13840184	-6.98308271	0.64372062	9.65914948	-0.17277122	0.67737389	4.76830706	-1.47111491	8.55172776	-5.58173022	1.79343450	16.43882585
4102	41.01000000	7.25259185	-1.92293797	3.53651279	6.09693311	2.95728235	3.90127447	10.75799759	1.98817256	-0.39123953	7.02521704	-2.86099065	-0.15500058	0.95059765	-5.63357042	0.96132684	9.01020769	-0.59407604	0.41683700	4.93669774	-1.38584768	8.40015539	-5.69805109	-0.13051093	15.43112427
4103	41.02000000	7.18098970	-1.54193051	3.72107626	5.78857233	3.11901908	3.77726020	9.66337583	0.87819646	-0.64366150	6.67754914	-1.85115273	-0.34640564	1.09967100	-4.87355788	0.98857583	8.04906884	-1.10692465	0.04756017	5.02352775	-1.27209821	8.32229561	-4.37363931	-1.35232276	14.86155521
4104	41.03000000	7.10910946	-1.21360688	3.97259714	5.34726772	3.30866705	3.76457859	9.08153847	-0.46157163	-0.19586551	6.69123688	-0.90880799	-0.33870666	1.74095372	-4.15330953	0.98048362	6.84248503	-1.43839311	-0.28920456	5.14264347	-1.34097567	8.16467914	-3.04215436	-1.04250476	14.09179948
4105	41.04000000	6.86003410	-0.85675893	4.10601960	4.94667947	3.30044268	3.91846964	8.91884106	-1.28949284	0.04182981	6.94914278	-0.18534023	-0.24935194	2.88119839	-3.22950504	1.09254995	5.91594391	-1.44824435	-0.50570387	5.16717839	-1.36057178	8.14823800	-1.53550922	-0.29302830	13.36090601
4106	41.05000000	6.53539079	-0.57125238	4.11801900	4.78223865	3.09959423	4.05563753	8.84288647	-1.78109906	0.19286672	7.42201802	0.28042354	-0.22828744	4.33073488	-2.03805971	1.57268792	5.91609973	-1.50494247	-0.40194993	5.13549341	-1.32635488	8.03632342	0.27503304	-0.29659006	12.70374623
4107	41.06000000	6.18332886	-0.51994460	4.08312515	4.94913496	2.90378710	4.25430038	8.83297221	-1.93716540	0.81597872	8.00895494	0.32689302	-0.51807295	5.86780037	-0.71015890	2.25121917	5.39552732	-1.02473408	-0.26842727	5.05961820	-0.98937329	8.07949471	1.89013385	-0.49397865	12.04442709
4108	41.07000000	5.97550778	-0.67922657	4.16860196	5.27338670	2.63571925	4.45146568	8.94777880	-1.97915580	0.98940610	8.25025900	0.09951351	-0.73585142	7.36572949	0.58718444	2.74850141	5.45560859	-0.38312648	-0.12875368	5.38972229	-0.56653321	8.18853943	2.85475350	-0.35573257	11.01459956
4109	41.08000000	6.05415827	-0.99059732	4.27737357	5.67413659	2.28281654	4.61821863	9.13908788	-2.03085643	1.10847097	8.25197195	-0.15217533	-0.37940129	8.61552742	1.53538498	2.71493939	6.30859827	0.12113309	0.08515098	5.49246918	-0.65957550	8.09145641	3.07576216	-0.01978891	9.74558490
4110	41.09000000	6.28543873	-1.35424632	4.37846861	6.08870864	1.91871276	4.81307783	9.28583255	-1.91081817	1.26711539	8.30388392	-0.34351861	0.30825321	9.33172859	1.99196877	2.41517991	6.54116457	0.64820160	0.34838828	5.38130214	-0.70203775	8.10294972	3.32947948	0.26231335	8.83785727
4111	41.10000000	6.71083879	-1.73332789	4.55728691	6.60981654	1.56712145	4.87512960	9.41684171	-1.82932662	0.83310677	8.34804221	-0.43139614	0.69184540	9.42679429	1.88485287	2.36433849	7.00764504	0.89255073	0.49785337	5.15117954	-0.83775068	8.26713335	4.13395880	0.57449654	8.82676986
4112	41.11000000	7.12051630	-1.89488569	4.62128420	7.16833870	1.27983898	4.89700074	9.35134471	-1.78187450	0.57633450	8.46602677	-0.48235986	0.68050338	9.08606091	1.34995383	2.53433753	7.71093758	0.96575701	0.67229991	5.24366702	-1.05492755	8.11414170	5.65624456	0.71148347	9.71495537
4113	41.12000000	7.39337899	-2.00765234	4.56432190	7.56158821	1.10969188	4.98482867	9.32798175	-1.46680445	0.52215919	8.88552340	-0.62639760	0.35668233	9.03903600	0.67696494	2.76575475	8.12589026	1.07693475	0.67693804	5.17279098	-1.08882108	8.18750337	7.27080502	0.87223072	10.88851911
4114	41.13000000	7.65283951	-2.17795193	4.71367678	7.87395287	1.17935937	5.15243943	9.61694130	-0.83892003	0.39909650	9.31770389	-0.81480428	-0.15093314	9.49729330	-0.25560288	2.80290619	8.28342086	1.22518344	0.63834062	4.84707217	-1.01442143	8.58445390	7.94285545	1.05616704	11.58502331
4115	41.14000000	7.93134027	-2.12490701	4.99911231	8.08710018	1.45061472	5.12922780	10.10985200	-0.11856814	0.55597608	9.33954363	-1.01041677	-0.52782914	9.98420538	-0.94380997	2.54607720	8.40747328	1.40727828	0.52737633	5.10540552	-0.85744148	8.60983530	7.94197737	1.17068256	11.82019157
4116	41.15000000	8.41035161	-2.10222672	5.27574963	8.20441898	1.78749311	4.97061695	10.35094544	0.39981884	0.38132085	9.15195716	-0.99129276	-0.59982790	10.32924279	-1.23932045	2.31923050	8.66334417	1.46568607	0.32519432	5.31367437	-0.72557268	8.55991339	8.04342150	1.42321297	12.22921001
4117	41.16000000	8.93332596	-2.07404646	5.31133065	8.34268760	2.11640936	4.88627509	10.30138675	0.91177718	0.19472940	9.03914810	-0.72509814	-0.55563728	10.64319888	-1.68337311	2.14463753	9.02467196	1.64492880	-0.02151242	5.39222690	-0.52768769	8.64967463	7.81407819	1.55023591	12.50627340
4118	41.17000000	9.29289257	-1.98233710	5.33490965	8.51559541	2.48588449	4.72788840	10.30271933	1.58923741	0.25693846	9.19663318	-0.24273502	-0.47345113	10.81769364	-2.20906736	2.01403077	9.32960821	1.80148974	-0.38303346	5.24606781	-0.59164562	8.76786141	7.31034233	1.41305889	12.45583996
4119	41.18000000	9.46760229	-2.14839864	5.35666593	8.67422446	2.86193996	4.54739933	10.36018727	2.19709490	0.34150991	9.45811997	0.42602225	-0.47459889	10.81991405	-2.44550673	1.85118794	9.33409010	2.00718651	-0.67172109	5.16044484	-0.68908353	8.77376367	7.07848695	1.30799460	12.45402884
4120	41.19000000	9.58014342	-2.39012075	5.31209722	8.83698286	3.13886302	4.36918310	10.29168132	2.44251837	0.38807249	9.60516922	1.03480204	-0.63201831	10.84224887	-2.48632482	1.73324084	9.95229132	1.72363238	-0.72463652	5.18582117	-0.56116253	8.71304454	7.33989270	1.31630236	12.66280466
4121	41.20000000	9.48088332	-2.39297305	5.46486252	8.94709657	3.37154877	4.29507847	10.12406038	2.39479463	0.43101618	9.60740803	1.43629495	-0.74092473	10.94169721	-2.44001407	1.78331043	10.03320800	1.64853199	-0.72385583	5.34333597	-0.45134661	8.63961475	8.01333139	1.06959263	13.02697083
4122	41.21000000	9.43917843	-2.27632637	5.53314431	8.97148839	3.49169575	4.23095530	10.07121522	2.11058700	0.41458173	9.47133531	1.65780112	-0.74178709	10.99331014	-2.44283396	1.76778032	10.30146082	1.38910607	-0.46532602	5.24813846	-0.52061852	8.67203553	8.63109899	0.64181000	13.23271102
4123	41.22000000	9.65151681	-2.29820369	5.49745937	8.91590713	3.57451062	4.07627120	10.20826328	1.67436236	0.18848646	9.28430855	1.71906513	-0.52812873	10.94771272	-2.54675585	1.61135407	10.46853296	1.29022080	-0.10428403	5.03258357	-0.63141165	8.84669720	8.35319313	0.38782362	13.01832742
4124	41.23000000	9.78336912	-2.33723201	5.53873426	8.75881997	3.49216716	3.97449035	10.39949601	1.20468841	-0.00349114	9.17595929	1.75261158	-0.22855378	10.82812712	-2.93827288	1.34664454	10.34851095	1.39626361	0.27035295	4.87165058	-0.76005820	8.85667636	7.42448322	0.19356540	12.46004999
4125	41.24000000	9.88010947	-2.29224432	5.60013047	8.63391913	3.34767672	3.85414360	10.42516390	0.96497490	0.01866483	9.24246479	1.75646244	-0.20400870	10.60205550	-3.60522755	1.10118834	10.21964647	1.43161827	0.66491221	5.13235329	-0.75701455	8.61552668	6.97997114	-0.27889676	12.05774360
4126	41.25000000	9.74975871	-2.10714757	5.72087696	8.54668827	3.26430265	3.79149216	10.34132840	0.89588955	0.08148837	9.40885334	1.67904806	-0.38985665	10.27590159	-3.97554383	1.06115812	9.75899974	1.83712252	0.93866049	5.24790254	-0.63777605	8.52108951	7.34049262	-0.56207565	12.05629711
4127	41.26000000	9.38702841	-1.89564838	5.78424005	8.47581457	3.22809782	3.78978321	10.27439616	0.79402280	0.23780105	9.52910383	1.51439259	-0.57716515	9.98182877	-3.94085305	1.14767321	9.36104142	2.45871245	1.16888908	5.05799940	-0.65722993	8.61415857	7.94181813	-0.47039607	12.09554990
4128	41.27000000	9.08415943	-1.78668738	5.76528560	8.43692224	3.36616294	3.79346987	10.24931097	0.49909431	0.36865695	9.50652283	1.30154564	-0.63932961	9.75131921	-3.64952667	1.30715023	8.82791354	3.37745109	1.34745940	4.91058427	-0.65217335	8.76158103	8.40327418	-0.32719286	11.82068477
